<svg width="25" height="56" viewBox="0 0 25 56" fill="none" xmlns="http://www.w3.org/2000/svg">
<path d="M9.99818 38.7882C10.6158 38.8397 11.1181 38.9076 11.6224 38.9241C14.8565 39.0332 18.0514 38.6421 21.2402 38.1542C21.9391 38.0191 22.6528 37.9776 23.3626 38.0307C23.9267 38.0986 24.4578 38.4424 24.9374 38.638C24.9724 38.9591 24.9971 39.097 24.9992 39.235C25.026 40.6224 24.3816 41.5426 23.1856 42.2652C20.6597 43.7865 18.5187 45.8142 16.3181 47.7637C15.2579 48.7024 14.0536 49.4827 12.9893 50.4193C12.3244 51.004 11.7953 51.7471 11.2107 52.4244C11.0584 52.6035 10.9575 52.9143 10.7743 52.9658C9.80673 53.2499 9.08622 53.7542 8.79596 54.7753C8.76097 54.8968 8.48717 55.0038 8.31631 55.0203C7.06468 55.1335 5.78011 53.991 5.84599 52.7805C5.98597 50.4728 6.16919 48.1672 6.3627 45.8636C6.44504 44.8735 6.62414 43.8936 6.71883 42.9034C6.82176 41.8473 6.58297 41.6188 5.49397 41.4623C4.21969 41.275 2.96601 41.203 1.81731 41.8144C1.3356 41.3635 0.903291 41.0012 0.518332 40.5936C-0.193943 39.8361 -0.165121 38.9467 0.561564 38.2221C1.86466 36.917 2.15492 36.8758 3.74004 37.7836C4.34115 38.1295 5.81099 38.3889 7.06262 38.3333C7.09761 37.7157 7.14085 37.0734 7.16761 36.4311C7.31789 32.738 7.47228 29.0449 7.60609 25.3497C7.61844 25.0306 7.47434 24.7095 7.45787 24.3842C7.40435 23.3549 7.35083 22.373 7.69255 21.3293C8.08163 20.1373 8.1228 18.8239 8.25661 17.5558C8.50364 15.2049 8.75685 12.8519 8.91742 10.4948C9.0924 7.9463 9.28385 5.39363 8.86389 2.84097C8.73214 2.034 8.5057 1.1838 9.43619 0.547691C10.7866 -0.37662 11.6698 -0.133705 12.45 1.29702C12.6971 1.73164 12.8438 2.21603 12.8794 2.71472C12.9151 3.2134 12.8387 3.71373 12.6558 4.17906C12.1103 5.59538 12.0218 7.04463 11.9024 8.50212C11.4557 13.9265 10.9925 19.3509 10.6281 24.7795C10.3749 28.5611 10.274 32.351 10.1032 36.1368C10.0908 36.9664 10.0435 37.8042 9.99818 38.7882ZM9.41354 49.4168C12.3409 46.9465 15.3258 45.034 17.9423 42.259L9.68528 42.0532C9.60293 44.3197 9.51441 46.6891 9.41354 49.4168Z" fill="black"/>
</svg>
