<svg width="731" height="10" viewBox="0 0 731 10" fill="none" xmlns="http://www.w3.org/2000/svg">
<path d="M0 2.71908C7.85388 2.89095 14.6278 2.97803 21.3134 3.20032C27.2038 3.3974 33.2219 4.07571 38.8865 3.92447C44.5511 3.77322 49.9015 3.33323 55.9687 3.57156C61.6333 3.80072 67.5826 3.67239 73.3945 3.61739C80.2077 3.55094 87.0407 3.20261 93.5986 3.99551C94.5804 4.11925 96.1609 4.01384 97.4666 3.99551C111.702 3.89468 125.937 3.76635 140.162 3.70906C142.454 3.70623 144.725 3.81146 146.838 4.01842C163.037 5.57671 180.217 5.26735 197.064 5.39339C223.463 5.59276 249.911 5.4988 276.309 5.73713C284.358 5.80557 292.416 5.67808 300.352 5.35672C308.874 5.02673 317.905 5.35672 326.702 5.48734C340.368 5.68213 354.014 5.94566 367.67 6.17482C384.575 6.46815 401.471 6.79814 418.386 7.05022C428.203 7.19459 438.021 7.16708 447.779 7.30916C459.128 7.47416 470.438 7.78582 481.796 7.95082C489.257 8.05852 496.787 7.9279 504.239 8.06769C515.234 8.27164 526.151 8.72767 537.146 8.87891C547.533 9.02099 557.989 8.90412 568.405 8.90641C572.332 8.90641 576.2 8.90641 580.097 8.93391C589.483 8.97516 598.888 8.96142 608.263 9.08287C622.557 9.26849 636.832 9.55265 651.126 9.78181C655.053 9.84368 658.98 9.8643 662.848 9.87805C674.943 9.92388 687.057 10.0774 699.113 9.95138C708.43 9.85513 717.678 9.41516 726.936 9.08746C727.917 9.05308 728.722 8.73913 731 8.26477C726.091 7.82478 722.42 7.27938 718.591 7.19917C704.67 6.90585 690.68 6.77064 676.72 6.56898C673.146 6.51627 669.563 6.36503 665.999 6.38336C659.559 6.41315 653.129 6.54606 646.689 6.61252C641.78 6.66981 636.871 6.79355 632.031 6.72939C617.07 6.53231 602.128 6.25044 587.166 6.01441C570.634 5.75317 553.787 5.84712 537.628 5.1711C513.82 4.17654 489.768 4.07801 465.873 3.50511C445.776 3.02158 425.513 2.92533 405.349 2.6045C400.548 2.52659 395.806 2.24243 391.035 2.05223C389.769 1.97922 388.483 1.92714 387.186 1.8964C360.169 1.74973 333.132 1.69474 306.134 1.43808C291.909 1.30058 277.762 0.736848 263.537 0.503104C255.771 0.374774 247.927 0.528309 240.123 0.57185C238.159 0.57185 235.94 0.819344 234.35 0.665806C222.019 -0.52812 209.168 0.283107 196.612 0.113529C187.236 -0.0125094 177.753 0.32894 168.309 0.450395C153.043 0.647473 137.875 1.15621 122.452 0.8583C110.288 0.62914 97.7906 1.27079 85.676 0.986629C67.023 0.546641 48.6548 1.59391 30.1196 1.11038C24.0117 0.975115 17.8759 0.92003 11.7415 0.945382C7.35316 0.97059 3.46552 1.31433 0 2.71908Z" fill="black"/>
</svg>
